<svg xmlns="http://www.w3.org/2000/svg" viewBox="0 36 514 187" role="img" aria-label="Helicóptero realista orientado hacia la izquierda">
  <path fill="#000000" fill-rule="evenodd" clip-rule="evenodd" d="M302 195 L303 196 L303 198 L302 199 L300 197 Z M256 194 L258 192 L259 193 L264 193 L268 195 L267 196 L261 196 L260 195 L257 195 Z M238 201 L238 193 L239 192 L240 192 L242 194 L244 193 L247 193 L248 192 L250 193 L252 193 L253 194 L242 202 L239 202 Z M295 187 L296 186 L297 187 L296 188 Z M284 182 L286 180 L288 181 L291 184 L290 185 L286 185 L284 183 Z M288 179 L289 178 L290 179 L289 180 Z M272 181 L272 180 L274 178 L283 178 L284 179 L282 183 L275 183 Z M261 177 L262 176 L264 176 L265 177 L270 177 L271 178 L271 180 L269 182 L267 181 L262 181 L261 180 Z M294 173 L295 173 L298 176 L298 179 L296 181 L293 177 L293 174 Z M287 173 L289 176 L289 178 L288 179 L286 176 L286 174 Z M235 174 L236 173 L244 173 L245 174 L252 174 L253 175 L258 175 L259 176 L259 178 L257 180 L247 180 L246 179 L242 179 L238 177 Z M300 167 L302 169 L301 171 L299 171 L298 170 L298 169 Z M249 166 L251 164 L258 164 L261 166 L267 166 L269 165 L270 166 L276 166 L277 167 L282 167 L286 170 L287 173 L286 174 L284 173 L279 173 L278 172 L276 172 L274 173 L272 171 L268 171 L267 170 L263 170 L262 171 L260 168 L251 168 Z M292 164 L293 163 L294 164 L293 165 Z M161 167 L163 166 L165 163 L166 163 L169 167 L168 168 L162 168 Z M438 162 L439 161 L442 161 L443 162 L449 162 L451 164 L451 165 L450 166 L448 165 L443 165 L442 164 L439 164 Z M275 159 L276 158 L277 159 L276 160 Z M261 159 L262 158 L263 159 L262 160 Z M334 157 L335 156 L336 157 L335 158 Z M243 156 L244 155 L245 156 L244 157 Z M281 155 L282 154 L283 155 L282 156 Z M244 155 L245 154 L246 155 L245 156 Z M274 154 L275 153 L276 154 L275 155 Z M262 154 L263 153 L264 154 L263 155 Z M280 153 L281 152 L282 153 L281 154 Z M272 153 L273 152 L275 153 L274 154 Z M224 153 L225 152 L227 152 L228 153 L227 154 L225 154 Z M260 152 L261 151 L262 152 L261 153 Z M245 152 L246 151 L247 153 L246 154 Z M227 152 L228 151 L229 152 L228 153 Z M306 151 L307 150 L308 151 L307 152 Z M326 150 L327 149 L330 150 L335 155 L335 156 L333 157 L331 155 L328 155 L327 154 L327 152 Z M155 147 L156 148 L155 149 L155 151 L153 153 L151 151 L152 150 L151 149 L153 147 Z M152 138 L154 141 L156 141 L157 142 L153 146 L151 145 L151 143 L150 145 L148 144 L148 142 Z M145 138 L148 141 L148 143 L146 145 L145 145 L144 143 L142 142 L142 141 Z M317 137 L319 136 L320 137 L324 137 L325 138 L328 138 L329 139 L332 139 L333 140 L337 140 L338 141 L347 142 L348 143 L351 143 L352 144 L354 144 L356 143 L360 145 L364 145 L365 146 L368 146 L369 147 L374 147 L375 148 L379 148 L380 149 L384 149 L385 150 L389 150 L390 151 L395 151 L396 152 L400 152 L401 153 L404 153 L405 154 L409 154 L410 155 L415 155 L416 156 L425 157 L428 159 L427 160 L423 160 L422 161 L421 160 L417 160 L416 159 L412 159 L411 158 L406 158 L405 157 L400 157 L399 156 L395 156 L394 155 L390 155 L389 154 L384 154 L383 153 L378 153 L377 152 L373 152 L372 151 L369 151 L368 150 L363 150 L362 149 L357 149 L356 148 L352 148 L351 147 L347 147 L346 146 L341 146 L340 145 L335 145 L334 144 L329 144 L328 143 L324 143 L323 142 L320 142 L318 140 Z M190 135 L191 136 L191 144 L192 145 L192 150 L194 152 L194 153 L193 154 L184 154 L182 152 L183 151 L190 151 L189 150 L189 136 Z M234 132 L235 131 L241 131 L242 132 L248 132 L249 133 L253 133 L254 134 L257 134 L258 135 L261 135 L262 136 L266 136 L267 137 L270 137 L271 138 L273 138 L277 140 L280 140 L284 142 L287 142 L290 144 L292 144 L293 145 L295 145 L296 146 L301 147 L306 150 L305 151 L303 151 L302 150 L299 150 L298 149 L293 149 L292 148 L288 148 L287 147 L283 147 L282 146 L277 146 L276 145 L272 145 L271 144 L267 144 L266 143 L261 143 L260 142 L254 142 L253 141 L249 141 L248 140 L243 140 L242 139 L239 139 L237 137 L236 134 Z M203 129 L202 132 L200 134 L198 133 L200 129 L199 129 L195 134 L194 133 L194 130 L188 130 L187 129 L184 129 L178 135 L178 140 L177 141 L177 144 L176 145 L176 150 L178 151 L177 153 L173 151 L173 147 L174 146 L174 141 L175 140 L175 136 L176 134 L172 132 L170 132 L169 131 L168 131 L161 146 L160 147 L156 147 L155 146 L159 144 L165 132 L165 130 L163 128 L165 126 L169 126 L170 125 L177 125 L178 124 L189 124 L190 125 L196 125 L197 126 L200 126 Z M204 113 L206 111 L223 111 L224 112 L227 112 L229 115 L229 119 L221 126 L216 126 L210 119 L207 118 L204 115 Z M198 111 L199 112 L199 118 L198 119 L196 117 L196 113 Z M239 112 L243 109 L244 110 L251 110 L252 111 L259 111 L260 112 L266 112 L267 113 L271 113 L272 114 L274 114 L278 118 L278 120 L279 121 L281 121 L282 119 L285 122 L286 124 L286 127 L285 128 L280 128 L279 129 L278 129 L277 127 L274 127 L273 128 L269 128 L264 122 L260 120 L254 120 L254 121 L252 123 L251 121 L245 115 L243 114 L240 114 Z M509 110 L508 107 L505 104 L505 103 L502 106 L502 107 L499 110 L499 111 L490 122 L489 124 L489 128 L487 130 L485 129 L483 133 L482 131 L480 132 L478 130 L454 118 L454 120 L453 121 L453 124 L468 132 L470 132 L471 133 L471 136 L465 142 L464 142 L464 143 L461 146 L460 146 L449 157 L444 157 L443 158 L430 158 L429 157 L426 157 L425 156 L422 156 L421 155 L417 155 L416 154 L412 154 L411 153 L407 153 L406 152 L403 152 L402 151 L399 151 L398 150 L395 150 L394 149 L390 149 L389 148 L385 148 L384 147 L381 147 L380 146 L371 145 L370 144 L367 144 L366 143 L364 143 L362 141 L360 142 L359 140 L362 136 L361 134 L358 134 L358 135 L353 141 L349 141 L348 140 L345 140 L344 139 L340 139 L339 138 L335 138 L334 137 L331 137 L330 136 L327 136 L326 135 L322 135 L321 134 L319 134 L318 133 L321 129 L321 128 L318 128 L318 129 L315 133 L312 133 L311 132 L308 132 L306 131 L304 129 L305 128 L304 127 L302 130 L298 130 L297 129 L294 129 L293 128 L293 125 L292 125 L290 123 L290 118 L289 117 L287 117 L279 113 L276 113 L275 112 L270 112 L269 111 L265 111 L263 109 L259 107 L257 107 L255 105 L257 104 L257 99 L258 98 L261 98 L262 97 L267 97 L268 96 L279 96 L280 95 L289 95 L290 96 L309 96 L310 95 L326 95 L327 94 L345 94 L346 93 L361 93 L362 92 L385 92 L386 91 L404 91 L405 90 L423 90 L424 89 L439 89 L440 88 L460 88 L461 87 L475 87 L479 85 L468 85 L467 86 L441 86 L440 87 L417 87 L416 88 L395 88 L394 89 L369 89 L368 90 L338 90 L337 91 L312 91 L311 92 L291 92 L290 93 L270 93 L269 94 L266 94 L265 95 L263 94 L264 92 L270 89 L272 89 L275 87 L285 87 L286 88 L287 87 L292 86 L295 84 L298 84 L301 82 L303 82 L304 81 L309 80 L312 78 L314 78 L315 77 L317 77 L318 76 L323 75 L326 73 L328 73 L329 72 L331 72 L332 71 L334 71 L335 70 L340 69 L343 67 L346 67 L347 66 L352 65 L355 63 L357 63 L358 62 L361 62 L364 60 L366 60 L367 59 L369 59 L370 58 L372 58 L373 57 L375 57 L376 56 L378 56 L379 55 L381 55 L382 54 L384 54 L385 53 L387 53 L388 52 L390 52 L391 51 L393 51 L394 50 L396 50 L397 49 L399 49 L400 48 L402 48 L403 47 L405 47 L406 46 L408 46 L409 45 L414 44 L416 43 L416 42 L414 41 L408 41 L407 42 L405 42 L404 43 L402 43 L401 44 L399 44 L398 45 L396 45 L395 46 L393 46 L392 47 L390 47 L389 48 L387 48 L386 49 L384 49 L383 50 L381 50 L377 52 L374 52 L371 54 L369 54 L365 56 L362 56 L361 57 L359 57 L353 60 L350 60 L349 61 L347 61 L344 63 L341 63 L340 64 L338 64 L335 66 L332 66 L331 67 L329 67 L328 68 L326 68 L325 69 L323 69 L322 70 L320 70 L319 71 L314 72 L311 74 L309 74 L308 75 L306 75 L305 76 L300 77 L297 79 L294 79 L293 80 L291 80 L290 81 L288 81 L287 82 L282 83 L279 85 L276 85 L275 86 L273 86 L272 87 L270 87 L269 88 L267 88 L263 90 L260 90 L259 91 L256 91 L254 90 L253 92 L251 91 L251 90 L248 86 L243 86 L241 90 L235 90 L234 91 L232 91 L231 90 L226 89 L225 87 L223 86 L221 86 L220 85 L215 84 L212 82 L209 82 L206 80 L204 80 L203 79 L201 79 L200 78 L198 78 L197 77 L195 77 L194 76 L192 76 L191 75 L186 74 L183 72 L181 72 L180 71 L178 71 L177 70 L172 69 L169 67 L167 67 L166 66 L164 66 L163 65 L161 65 L160 64 L158 64 L157 63 L155 63 L154 62 L152 62 L151 61 L149 61 L148 60 L143 59 L140 57 L138 57 L137 56 L135 56 L134 55 L129 54 L126 52 L124 52 L123 51 L121 51 L120 50 L118 50 L117 49 L115 49 L114 48 L112 48 L108 46 L99 46 L98 47 L92 47 L95 47 L96 48 L98 48 L99 49 L101 49 L102 50 L104 50 L105 51 L107 51 L108 52 L110 52 L111 53 L113 53 L114 54 L116 54 L117 55 L119 55 L120 56 L122 56 L126 58 L129 58 L132 60 L134 60 L138 62 L141 62 L144 64 L146 64 L150 66 L153 66 L154 67 L156 67 L157 68 L159 68 L160 69 L162 69 L163 70 L165 70 L166 71 L168 71 L169 72 L171 72 L172 73 L174 73 L175 74 L177 74 L178 75 L180 75 L181 76 L183 76 L184 77 L186 77 L187 78 L189 78 L190 79 L192 79 L196 81 L199 81 L200 82 L202 82 L203 83 L205 83 L206 84 L208 84 L209 85 L211 85 L212 86 L214 86 L215 87 L217 87 L218 88 L223 89 L226 91 L228 91 L230 92 L232 94 L231 95 L228 95 L227 94 L225 96 L223 95 L22 95 L21 94 L6 94 L5 95 L6 96 L181 96 L182 97 L220 97 L221 98 L223 98 L224 97 L226 98 L229 98 L230 97 L231 98 L237 98 L238 99 L236 101 L236 104 L235 105 L225 105 L224 104 L221 104 L220 105 L217 105 L215 107 L215 109 L214 110 L210 110 L209 109 L207 109 L206 110 L199 110 L198 111 L194 111 L191 113 L185 113 L183 114 L180 117 L180 121 L181 122 L179 124 L170 124 L169 125 L164 125 L163 126 L159 126 L158 127 L155 127 L154 128 L152 128 L150 129 L149 131 L146 134 L146 135 L143 138 L143 139 L140 142 L140 143 L136 147 L135 147 L134 149 L134 160 L136 164 L138 165 L138 167 L132 173 L130 173 L131 174 L133 174 L140 167 L145 171 L151 174 L153 174 L154 175 L157 175 L158 176 L161 176 L162 177 L165 177 L166 178 L169 178 L170 179 L174 179 L175 180 L178 180 L179 182 L177 184 L177 188 L176 189 L177 189 L178 191 L175 194 L175 200 L177 202 L177 203 L179 204 L181 204 L182 203 L187 203 L189 202 L191 198 L191 194 L189 191 L187 190 L184 190 L182 191 L181 190 L182 188 L181 183 L183 181 L185 181 L186 182 L189 182 L190 183 L194 183 L195 184 L199 184 L200 185 L205 185 L206 186 L210 186 L211 187 L215 187 L216 188 L220 188 L221 189 L226 189 L227 190 L232 190 L233 191 L235 191 L236 192 L236 198 L235 199 L232 199 L230 200 L227 203 L227 205 L226 206 L226 210 L227 211 L227 213 L231 217 L233 218 L237 218 L241 215 L242 213 L242 207 L245 205 L247 205 L248 204 L250 204 L251 203 L253 203 L254 202 L256 202 L257 201 L259 201 L260 200 L262 200 L263 199 L265 199 L266 198 L268 198 L269 196 L271 196 L272 195 L291 195 L292 196 L292 199 L294 203 L296 205 L298 206 L303 206 L305 205 L308 201 L308 193 L311 191 L314 191 L320 188 L329 180 L329 179 L331 177 L334 171 L334 169 L335 168 L335 164 L337 162 L347 162 L348 163 L351 163 L352 164 L352 166 L354 170 L358 170 L359 171 L365 171 L366 172 L372 172 L372 166 L373 165 L378 165 L379 166 L390 166 L391 167 L399 167 L400 168 L407 168 L408 169 L415 169 L416 170 L426 170 L429 173 L435 186 L429 174 L429 172 L430 171 L434 171 L436 175 L436 179 L436 173 L437 172 L440 172 L441 173 L441 178 L440 179 L440 187 L439 188 L437 187 L437 190 L438 191 L438 193 L440 193 L439 191 L439 188 L440 187 L440 179 L441 178 L441 174 L443 172 L444 173 L457 173 L458 172 L460 172 L462 170 L466 161 L468 159 L470 155 L470 153 L471 152 L471 146 L477 140 L478 140 L478 139 L480 137 L481 137 L485 142 L485 145 L486 146 L486 150 L487 151 L487 156 L488 157 L488 161 L489 162 L489 165 L490 166 L490 171 L491 172 L491 177 L492 178 L495 178 L497 177 L497 174 L496 173 L496 169 L495 168 L495 165 L494 164 L494 161 L493 160 L493 156 L492 155 L492 152 L491 151 L491 148 L490 147 L490 144 L489 143 L489 139 L488 138 L488 137 L490 136 L490 134 L489 132 L493 128 L493 127 L506 114 L506 113 Z"/>
</svg>
